<?xml version="1.0" standalone="no"?>
<!DOCTYPE svg PUBLIC "-//W3C//DTD SVG 20010904//EN"
 "http://www.w3.org/TR/2001/REC-SVG-20010904/DTD/svg10.dtd">
<svg version="1.0" xmlns="http://www.w3.org/2000/svg"
 width="585.000000pt" height="578.000000pt" viewBox="0 0 585.000000 578.000000"
 preserveAspectRatio="xMidYMid meet">
<metadata>
Created by potrace 1.16, written by Peter Selinger 2001-2019
</metadata>
<g transform="translate(0.000000,578.000000) scale(0.100000,-0.100000)"
fill="#000000" stroke="none">
<path d="M2570 5764 c-626 -75 -1220 -353 -1673 -783 -496 -471 -803 -1083
-882 -1757 -20 -168 -20 -500 0 -668 79 -674 386 -1286 882 -1757 396 -376
916 -644 1453 -749 352 -68 798 -68 1150 0 537 105 1057 373 1453 749 496 471
803 1083 882 1757 20 168 20 500 0 668 -20 168 -56 344 -100 492 -335 1109
-1305 1914 -2470 2049 -162 19 -535 18 -695 -1z m90 -190 c106 -42 106 -181 0
-172 -29 3 -35 7 -38 29 -2 15 4 31 14 40 16 13 17 12 11 -13 -9 -35 18 -52
54 -35 64 32 13 124 -73 134 -165 19 -302 -249 -204 -398 l29 -43 16 44 c23
62 70 93 133 87 93 -8 131 -70 71 -117 -30 -23 -51 -23 -67 2 -14 23 2 37 18
15 16 -21 25 -21 48 0 42 38 11 73 -64 73 -63 -1 -108 -44 -108 -104 0 -32 25
-46 95 -53 66 -7 133 13 214 64 l58 36 6 77 c6 88 21 124 72 168 78 69 102 75
290 76 159 0 173 -2 219 -24 96 -47 197 -172 216 -267 12 -63 -2 -205 -41
-410 -41 -218 -42 -274 -6 -335 51 -88 114 -112 162 -63 28 27 33 70 9 79 -17
7 -54 -10 -54 -24 0 -6 -5 -10 -11 -10 -6 0 -9 10 -7 23 4 31 66 37 92 8 16
-18 17 -24 6 -51 -31 -75 -113 -93 -175 -39 -19 17 -35 29 -35 27 0 -3 9 -31
20 -62 34 -99 44 -214 34 -401 -5 -93 -8 -277 -7 -408 3 -262 16 -356 88 -619
48 -172 56 -189 115 -234 44 -33 59 -54 100 -139 l47 -100 159 -74 c120 -56
172 -75 216 -78 l57 -6 148 -261 148 -261 11 -105 c7 -74 7 -107 0 -112 -15
-11 -179 -64 -251 -82 -114 -29 -278 -48 -427 -49 -127 -2 -147 -4 -142 -17 3
-8 31 -87 61 -175 71 -206 111 -293 162 -347 69 -76 173 -357 140 -379 -10 -7
-34 12 -93 73 -110 116 -124 140 -146 251 -22 108 -64 200 -208 454 l-86 152
-71 11 c-88 14 -347 78 -357 88 -5 5 30 100 77 212 47 111 85 211 85 222 0 29
-45 131 -96 222 -201 352 -420 724 -433 737 -9 9 -36 21 -60 27 l-43 10 7
-381 c7 -453 17 -597 44 -658 11 -24 25 -73 31 -109 18 -96 14 -354 -7 -526
-10 -82 -18 -203 -18 -269 0 -116 1 -123 33 -189 38 -78 37 -104 -7 -136 -34
-23 -44 -49 -67 -175 -18 -100 -34 -139 -65 -156 -30 -16 -35 -4 -14 36 18 32
18 44 7 167 -12 138 -7 212 24 392 13 75 13 111 4 220 -13 155 -51 441 -85
654 -14 84 -25 180 -25 213 0 46 -30 173 -125 527 -69 257 -129 474 -134 482
-4 8 -30 21 -57 29 -27 7 -50 14 -52 16 -1 1 3 58 8 126 13 149 41 282 74 355
14 30 22 54 19 54 -7 0 -101 -67 -130 -93 -21 -19 -21 -19 -4 -71 16 -46 17
-57 4 -106 -14 -55 -55 -128 -61 -109 -2 5 3 21 12 34 9 13 16 40 16 60 0 49
-25 45 -43 -7 -28 -79 -28 -102 2 -165 43 -91 76 -178 177 -468 89 -253 95
-279 110 -409 13 -111 14 -140 4 -146 -33 -21 -188 -35 -375 -35 -178 0 -209
3 -278 23 -43 12 -98 32 -122 45 l-43 22 96 330 c68 237 100 334 114 343 10 8
50 76 88 153 59 117 69 145 66 177 -4 27 9 78 47 192 l52 155 295 222 295 222
12 58 c16 79 16 130 -2 208 -9 37 -13 75 -10 86 4 10 26 33 51 49 24 17 44 36
44 41 0 6 -7 35 -16 65 -19 66 -11 83 54 121 42 25 57 28 137 28 50 1 96 5
104 9 10 7 12 26 7 84 -4 41 -10 89 -13 106 l-6 30 43 -37 c24 -20 51 -37 61
-37 10 0 34 19 54 43 l37 42 -6 -35 -6 -35 20 23 c36 44 58 145 43 200 -7 30
-23 10 -23 -31 0 -16 -20 -57 -46 -97 -53 -79 -70 -85 -124 -45 -19 14 -39 25
-45 25 -7 0 -31 -23 -54 -51 -53 -62 -96 -89 -195 -125 -66 -23 -81 -33 -105
-68 -37 -54 -68 -115 -97 -193 -22 -59 -23 -66 -9 -93 23 -44 19 -69 -15 -88
-20 -12 -35 -33 -50 -73 -37 -101 -96 -164 -160 -169 -50 -4 -69 0 -98 25 -36
30 -45 69 -27 112 25 60 89 71 136 24 34 -34 37 -61 10 -85 -24 -22 -90 -18
-105 7 -21 33 31 76 58 46 8 -9 7 -10 -8 -5 -27 9 -48 -11 -35 -35 18 -34 99
-16 99 22 0 19 -58 69 -80 69 -29 0 -70 -44 -70 -74 0 -113 145 -131 213 -27
21 32 62 142 54 145 -1 1 -22 8 -47 16 -80 27 -114 108 -85 205 28 97 97 156
240 205 88 31 141 57 132 66 -2 2 -20 -2 -39 -11 -20 -8 -118 -28 -219 -45
-101 -17 -190 -33 -197 -35 -9 -3 -7 -13 10 -36 17 -22 23 -43 22 -77 -1 -39
-6 -50 -37 -78 -52 -48 -94 -53 -207 -23 -22 6 -37 -80 -21 -120 13 -31 62
-61 100 -61 26 0 61 34 61 59 0 48 -64 69 -80 26 -11 -28 -20 -31 -38 -13 -32
32 -1 72 55 72 44 0 83 -40 83 -85 0 -47 -47 -89 -100 -89 -51 0 -111 31 -133
70 -25 41 -31 108 -15 160 12 37 12 49 1 70 -19 37 -16 105 7 149 28 56 122
135 205 172 l72 33 -96 63 c-131 86 -169 98 -316 98 -128 0 -173 -13 -219 -63
-18 -20 -18 -22 0 -59 22 -45 59 -54 118 -29 29 12 36 20 36 43 0 54 -51 72
-91 32 -16 -16 -18 -23 -8 -35 14 -17 6 -29 -16 -21 -20 8 -19 51 1 68 9 7 37
13 62 13 41 1 48 -2 60 -26 38 -80 -110 -150 -174 -81 -30 33 -39 25 -39 -37
0 -55 20 -84 74 -107 27 -11 39 -12 62 -3 32 14 44 37 28 56 -17 21 -38 17
-32 -6 3 -11 1 -20 -5 -20 -16 0 -23 16 -16 34 14 36 84 5 84 -37 0 -82 -158
-72 -222 14 -32 42 -33 97 -5 152 18 36 23 58 20 90 -8 66 13 126 61 173 53
54 104 68 216 61 114 -7 179 -33 325 -132 118 -81 195 -125 244 -140 21 -6 19
-3 -13 29 -20 20 -36 41 -36 46 0 6 -16 27 -35 49 -108 119 -107 290 3 405 41
43 103 75 144 76 15 0 46 -7 68 -16z"/>
<path d="M1835 5221 c-73 -34 -115 -98 -115 -173 0 -16 2 -28 5 -28 3 0 23 13
45 29 58 42 115 54 228 49 84 -5 121 -13 282 -66 102 -33 208 -63 235 -66 l50
-6 -40 13 c-64 22 -121 54 -249 141 -74 51 -146 91 -185 104 -84 28 -199 30
-256 3z"/>
<path d="M2815 5115 c-90 -59 -208 -82 -280 -55 l-25 10 15 -30 c23 -44 68
-64 128 -56 63 7 171 57 190 88 13 20 32 79 25 77 -2 0 -26 -15 -53 -34z"/>
<path d="M2995 4941 c-119 -152 -257 -183 -480 -110 -80 27 -94 29 -134 19
-151 -38 -283 -171 -251 -254 l10 -28 40 35 c73 66 112 79 315 102 276 31 367
62 510 176 78 62 78 61 47 107 -7 10 -21 -1 -57 -47z"/>
<path d="M3422 4930 c-15 -16 -45 -61 -66 -100 -35 -65 -37 -73 -26 -105 6
-19 17 -35 24 -35 23 0 132 77 155 109 72 101 -7 219 -87 131z"/>
<path d="M3601 4853 c-19 -42 -59 -106 -89 -142 -72 -87 -81 -111 -50 -131 13
-8 39 -32 59 -54 l37 -38 0 48 c0 27 13 94 27 149 34 123 56 226 53 237 -2 4
-18 -26 -37 -69z"/>
<path d="M2701 4639 c-102 -51 -161 -141 -161 -247 0 -32 6 -49 25 -67 34 -35
51 -32 58 12 7 42 0 56 -14 30 -13 -23 -36 -22 -44 3 -10 30 13 53 46 46 25
-5 29 -1 40 32 17 52 67 151 97 190 13 17 22 32 20 32 -3 0 -33 -14 -67 -31z"/>
<path d="M3416 4154 c-31 -31 -144 -180 -208 -274 -84 -125 -131 -220 -130
-267 0 -54 222 -719 369 -1108 119 -313 143 -370 143 -333 0 12 23 22 83 38
79 22 84 25 136 86 55 64 101 137 101 158 0 6 -5 28 -11 49 -8 29 -19 42 -51
58 l-41 21 8 -38 c4 -21 13 -51 21 -66 15 -30 19 -103 5 -94 -5 3 -12 18 -16
33 -3 16 -19 48 -35 73 -18 29 -33 72 -41 120 -8 46 -34 123 -67 200 -116 269
-162 409 -162 502 0 27 7 90 16 140 10 58 14 112 9 143 -3 28 -10 147 -14 265
-8 227 -18 277 -59 299 -28 15 -38 14 -56 -5z"/>
</g>
</svg>
